<svg id="Capa_1" enable-background="new 0 0 499.1 499.1" height="512" viewBox="0 0 499.1 499.1" width="512" xmlns="http://www.w3.org/2000/svg"><g><g><path d="m462.245 494.42-428.908.267c-17.32 0-31.361-14.041-31.361-31.361l.934-399.149c0-12.452 4.343-27.045 14.858-32.109 4.111-1.98 8.72-3.089 13.588-3.089h436.382c17.32 0 31.361 14.041 31.361 31.361v405.599c0 4.87-1.11 9.481-3.091 13.593-5.063 10.513-21.313 14.888-33.763 14.888z" fill="#966a5b"/><path d="m496.002 479.529c-5.06 10.516-15.816 17.771-28.267 17.771h-436.374c-17.322 0-31.361-14.039-31.361-31.361v-405.599c0-12.45 7.255-23.207 17.771-28.267v433.866c0 7.495 6.094 13.59 13.59 13.59z" fill="#845752"/><path d="m460.094 80.516v85.824l-4.343 17.771h-414.658l-1.045-102.55c0-6.241 5.06-11.29 11.29-11.29l5.436-1.045h35.448l35.309 5.36 35.776-5.36h172.483l34.647 5.36 36.438-5.36h41.929c6.23 0 11.29 5.049 11.29 11.29z" fill="#ffe07d"/><path d="m163.306 69.226v6.795c0 19.6-15.942 35.542-35.542 35.542s-35.542-15.942-35.542-35.543v-6.795h71.084z" fill="#ffd064"/><g><path d="m127.764 96.928c-11.547 0-19.873-11.329-19.873-22.876l-.267-49.643c0-11.547 8.593-22.609 20.14-22.609 11.547 0 20.907 9.36 20.907 20.907v53.313c0 11.547-9.361 20.908-20.907 20.908z" fill="#f7f5f7"/><path d="m127.764 1.8v95.128c-11.551 0-20.907-9.356-20.907-20.907v-53.314c0-11.551 9.356-20.907 20.907-20.907z" fill="#e8e8e8"/></g><path d="m406.874 69.226v6.795c0 19.6-15.942 35.542-35.542 35.542s-35.542-15.942-35.542-35.542v-6.795z" fill="#ffd064"/><circle cx="248.983" cy="126.533" fill="#f7f5f7" r="20.907"/><g><g><path d="m163.306 148.15h-71.084c-4.33 0-7.84-3.51-7.84-7.84s3.51-7.84 7.84-7.84h71.084c4.33 0 7.84 3.51 7.84 7.84s-3.51 7.84-7.84 7.84z" fill="#ffd064"/></g><g><path d="m406.874 148.673h-71.084c-4.33 0-7.84-3.51-7.84-7.84s3.51-7.84 7.84-7.84h71.084c4.33 0 7.84 3.51 7.84 7.84s-3.51 7.84-7.84 7.84z" fill="#ffd064"/></g></g><g><path d="m371.332 96.928c-11.547 0-19.873-11.329-19.873-22.876l-.267-49.643c0-11.547 8.593-22.609 20.14-22.609 11.547 0 20.907 9.36 20.907 20.907v53.313c0 11.547-9.36 20.908-20.907 20.908z" fill="#f7f5f7"/><path d="m371.332 1.8v95.128c-11.551 0-20.907-9.356-20.907-20.907v-53.314c0-11.551 9.356-20.907 20.907-20.907z" fill="#e8e8e8"/></g><path d="m460.094 166.339v17.771l-221.778 11.114-199.314-11.113v-103.596c0-6.235 5.055-11.29 11.29-11.29h6.481v92.932c0 2.309 1.872 4.181 4.181 4.181h399.14z" fill="#ffd064"/><path d="m460.094 184.111v179.258c0 3.444-.789 6.808-2.264 9.849-1.073 2.211-4.233 2.255-5.993 4.033l-68.682 70.817c-2.013 2.033-4.338 5.929-6.904 7.062-2.844 1.256-5.944 1.924-9.11 1.924h-310.368l-4.391-2.091c-6.23 0-11.29-5.06-11.29-11.29v-257.523l15.68-2.04h403.322z" fill="#f7f5f7"/><g fill="#e8e8e8"><path d="m56.773 184.111v272.943h-6.481c-6.23 0-11.29-5.06-11.29-11.29v-261.653z"/><path d="m457.825 373.216c-1.066 2.216-2.509 4.255-4.265 6.032l-70.373 71.105c-2.018 2.028-4.37 3.638-6.941 4.767v-70.029c0-6.565 5.31-11.875 11.865-11.875z"/></g></g><g><path d="m220.048 410.202c-.163 0-.327-.002-.491-.006-6.363-.149-12.311-3.189-16.16-8.257l-55.56-74.51c-6.379-8.4-7.922-21.059-.702-28.339.684-.69 1.424-1.34 2.22-1.944 9.196-6.983 22.312-5.19 29.295 4.006l40.533 53.374c.375.494.917.767 1.476.818.653.059 1.536.798 2 .243l98.086-116.858c6.568-7.854 17.993-11.737 26.602-6.884 1.313.74 2.567 1.635 3.738 2.687 8.433 7.576 9.003 20.638 1.731 29.336l-116.794 139.693c-1.722 2.06-3.801 3.742-6.107 4.986-3.018 1.63-6.361 1.655-9.867 1.655z" fill="#afefa5"/></g><g fill="#8ce1a4"><path d="m347.341 231.852-114.54 136.586c-.868 1.035-2.457.993-3.272-.073l-10.349-13.841c.815 1.066 2.404 1.108 3.272.073l98.609-117.937c6.565-7.85 17.677-9.669 26.28-4.808z"/><path d="m229.916 408.549c-3.021 1.631-6.429 2.509-9.931 2.509-.167 0-.324 0-.491-.01-6.366-.146-12.314-3.188-16.161-8.248l-57.986-76.363c-6.377-8.394-5.425-20.06 1.788-27.347z"/></g></g></svg>