<?xml version="1.0"?>
<svg xmlns="http://www.w3.org/2000/svg" xmlns:xlink="http://www.w3.org/1999/xlink" xmlns:svgjs="http://svgjs.com/svgjs" version="1.1" width="512" height="512" x="0" y="0" viewBox="0 0 128 128" style="enable-background:new 0 0 512 512" xml:space="preserve" class=""><g><g xmlns="http://www.w3.org/2000/svg" id="Circle_Grid" data-name="Circle Grid"><circle cx="64" cy="64" fill="#6979f8" r="64" data-original="#2cbfae" style="" class=""/></g><g xmlns="http://www.w3.org/2000/svg" id="icon"><path d="m100.3 97.779-.148.148c-5.979 5.979-11.131 9.338-16.2 9.056-10.545-.607-25.9-10.9-39.069-23.794-12.874-13.143-23.159-28.495-23.794-39.069-.254-4.941 2.972-9.988 8.738-15.811.085-.1.177-.191.268-.282l.226-.226a3.175 3.175 0 0 1 .586-.374l20.371 20.373c-.092.148-.176.3-.282.452a2.12 2.12 0 0 1 -.339.381l-.035.035a13.812 13.812 0 0 0 -3.946 5.583c-2.174 5.943 3.381 11.738 9.409 17.766s11.816 11.576 17.759 9.4a14.189 14.189 0 0 0 5.59-3.939l.035-.035a3.238 3.238 0 0 1 .826-.628l20.371 20.371a2.686 2.686 0 0 1 -.366.593z" fill="#ffffff" data-original="#f6c863" style="" class=""/><path d="m102.1 90.5-15.131-15.132c-1.616-1.616-5.435-.657-6.769 1.329-.008.011-.853.856-.862.867a1.554 1.554 0 0 0 .45.749l19.2 19.2a1.709 1.709 0 0 0 1.086.487l.991-.991c1.505-1.509 2.74-4.291 1.035-6.509z" fill="#4d5160" data-original="#4d5160" style="" class=""/><path d="m51.415 47.869-.868.868a1.671 1.671 0 0 1 -.786-.452l-19.2-19.2c-.367-.367-.6-.614-.734-.776.085-.1.177-.191.268-.282l1-1c1.5-1.5 4.412-3.127 6.5-1.038l15.15 15.112c1.614 1.622 1.028 4.509-1.33 6.768z" fill="#4d5160" data-original="#4d5160" style="" class=""/><path d="m95.5 32.581-2.314 23.346-5.185-5.174-14.887 14.887-10.683-10.683 14.897-14.887-5.184-5.174z" fill="#ffffff" data-original="#eeefee" style="" class=""/></g></g></svg>
